<svg width="36" height="36" viewBox="0 0 36 36" fill="none" xmlns="http://www.w3.org/2000/svg">
<path fill-rule="evenodd" clip-rule="evenodd" d="M36 18C36 22.7739 34.1036 27.3523 30.7279 30.7279C27.3523 34.1036 22.7739 36 18 36C13.2261 36 8.64773 34.1036 5.27208 30.7279C1.89642 27.3523 0 22.7739 0 18C0 13.2261 1.89642 8.64773 5.27208 5.27208C8.64773 1.89642 13.2261 0 18 0C22.7739 0 27.3523 1.89642 30.7279 5.27208C34.1036 8.64773 36 13.2261 36 18ZM22.5 11.25C22.5 12.4435 22.0259 13.5881 21.182 14.432C20.3381 15.2759 19.1935 15.75 18 15.75C16.8065 15.75 15.6619 15.2759 14.818 14.432C13.9741 13.5881 13.5 12.4435 13.5 11.25C13.5 10.0565 13.9741 8.91193 14.818 8.06802C15.6619 7.22411 16.8065 6.75 18 6.75C19.1935 6.75 20.3381 7.22411 21.182 8.06802C22.0259 8.91193 22.5 10.0565 22.5 11.25ZM18 20.25C15.8459 20.2496 13.7369 20.8676 11.9237 22.0307C10.1105 23.1937 8.66935 24.8529 7.7715 26.811C9.03752 28.2838 10.6071 29.4655 12.3726 30.2748C14.1381 31.0842 16.0578 31.5021 18 31.5C19.9422 31.5021 21.8619 31.0842 23.6274 30.2748C25.3929 29.4655 26.9625 28.2838 28.2285 26.811C27.3307 24.8529 25.8895 23.1937 24.0763 22.0307C22.2631 20.8676 20.1541 20.2496 18 20.25Z" fill="#10B981"/>
</svg>
