<svg width="120" height="22" viewBox="0 0 120 22" fill="none" xmlns="http://www.w3.org/2000/svg">
<path d="M7.59264 4.98153C8.28838 5.4505 8.78245 6.09664 9.06478 6.8991V4.42918H11.9788V16.3411H9.06478V13.8503C8.77237 14.6528 8.27829 15.2989 7.59264 15.7783C6.8969 16.2577 6.07008 16.4974 5.09201 16.4974C4.12402 16.4974 3.24679 16.2577 2.47038 15.7679C1.69398 15.2781 1.08898 14.5694 0.655407 13.6523C0.22183 12.7248 0 11.6409 0 10.4008C0 9.16059 0.22183 8.06632 0.655407 7.1388C1.08898 6.21128 1.69398 5.51303 2.47038 5.02321C3.24679 4.5334 4.12402 4.2937 5.09201 4.2937C6.06 4.27286 6.8969 4.51256 7.59264 4.98153ZM3.80136 7.83705C3.24678 8.45192 2.96446 9.29607 2.96446 10.3695C2.96446 11.4429 3.2367 12.2871 3.80136 12.8915C4.35593 13.5064 5.09201 13.8086 6.00958 13.8086C6.8969 13.8086 7.63297 13.496 8.20771 12.8707C8.78245 12.2454 9.07487 11.4117 9.07487 10.3695C9.07487 9.30649 8.78245 8.46234 8.20771 7.84747C7.63297 7.22217 6.8969 6.90952 6.00958 6.90952C5.09201 6.91995 4.35593 7.22217 3.80136 7.83705Z" fill="#F5F5F5"/>
<path d="M24.1492 5.00235C24.9256 5.49217 25.5306 6.19042 25.9743 7.11794C26.4078 8.04546 26.6297 9.12931 26.6297 10.3799C26.6297 11.6305 26.4078 12.7143 25.9743 13.6314C25.5407 14.559 24.9357 15.2572 24.1492 15.747C23.3728 16.2368 22.4955 16.4765 21.5276 16.4765C20.5596 16.4765 19.7328 16.2368 19.037 15.7574C18.3514 15.278 17.8573 14.6319 17.575 13.8294V22H14.6407V4.41874H17.575V6.88866C17.8674 6.0862 18.3514 5.45048 19.037 4.97109C19.7227 4.50212 20.5495 4.26242 21.5276 4.26242C22.4955 4.27284 23.3728 4.51254 24.1492 5.00235ZM18.4119 7.84745C17.8371 8.47275 17.5447 9.3169 17.5447 10.3695C17.5447 11.4116 17.8371 12.2454 18.4119 12.8707C18.9866 13.496 19.7227 13.8086 20.61 13.8086C21.5276 13.8086 22.2636 13.5064 22.8182 12.8915C23.3728 12.2871 23.6551 11.4429 23.6551 10.3695C23.6551 9.29606 23.3728 8.45191 22.8182 7.83703C22.2636 7.22216 21.5276 6.90951 20.61 6.90951C19.7227 6.91993 18.9866 7.23258 18.4119 7.84745Z" fill="#F5F5F5"/>
<path d="M33.335 4.90857C34.0408 4.47087 34.8374 4.25201 35.7045 4.25201V7.49313H34.8475C32.6998 7.49313 31.6209 8.52487 31.6209 10.5883V16.3306H28.6866V4.41876H31.6209V6.70109C32.0645 5.94031 32.6292 5.34628 33.335 4.90857Z" fill="#F5F5F5"/>
<path d="M45.6869 5.00234C46.5843 5.49215 47.2801 6.1904 47.7943 7.11793C48.3086 8.04545 48.5606 9.12929 48.5606 10.3799C48.5606 11.6305 48.3086 12.7039 47.7943 13.621C47.2801 14.5381 46.5742 15.2468 45.6869 15.7366C44.7895 16.2264 43.7812 16.4765 42.662 16.4765C41.5427 16.4765 40.5344 16.2264 39.637 15.7366C38.7396 15.2468 38.0338 14.5381 37.5296 13.621C37.0154 12.7039 36.7633 11.6201 36.7633 10.3799C36.7633 9.13971 37.0154 8.04545 37.5296 7.11793C38.0439 6.1904 38.7497 5.49215 39.637 5.00234C40.5344 4.51252 41.5427 4.27283 42.662 4.27283C43.7812 4.27283 44.7895 4.51252 45.6869 5.00234ZM40.5747 7.78491C40.0101 8.37894 39.7177 9.24393 39.7177 10.3799C39.7177 11.5158 40 12.3808 40.5747 12.9749C41.1394 13.5689 41.8351 13.8711 42.6519 13.8711C43.4686 13.8711 44.1644 13.5689 44.729 12.9749C45.2937 12.3808 45.5861 11.5158 45.5861 10.3799C45.5861 9.24393 45.3038 8.37894 44.729 7.78491C44.1644 7.19088 43.4686 6.88865 42.6519 6.88865C41.8351 6.89907 41.1495 7.19088 40.5747 7.78491Z" fill="#F5F5F5"/>
<path d="M55.6591 13.2979L58.5732 4.41867H61.6889L57.4237 16.3306H53.8442L49.579 4.41867H52.7249L55.6591 13.2979Z" fill="#F5F5F5"/>
<path d="M70.3201 4.98156C71.0159 5.45053 71.5099 6.09667 71.7923 6.89913V4.42921H74.7063V16.3411H71.7923V13.8503C71.4998 14.6528 71.0058 15.2989 70.3201 15.7783C69.6244 16.2577 68.7976 16.4974 67.8195 16.4974C66.8515 16.4974 65.9743 16.2577 65.1979 15.7679C64.4215 15.2781 63.8165 14.5694 63.3829 13.6523C62.9493 12.7248 62.7275 11.641 62.7275 10.4008C62.7275 9.16062 62.9493 8.06635 63.3829 7.13883C63.8165 6.21131 64.4215 5.51306 65.1979 5.02325C65.9743 4.53343 66.8515 4.29373 67.8195 4.29373C68.7976 4.27289 69.6244 4.51259 70.3201 4.98156ZM66.5389 7.83708C65.9843 8.45195 65.702 9.2961 65.702 10.3695C65.702 11.443 65.9743 12.2871 66.5389 12.8915C67.0935 13.5064 67.8296 13.8087 68.7471 13.8087C69.6345 13.8087 70.3705 13.496 70.9453 12.8707C71.52 12.2454 71.8124 11.4117 71.8124 10.3695C71.8124 9.30652 71.52 8.46237 70.9453 7.8475C70.3705 7.2222 69.6345 6.90956 68.7471 6.90956C67.8296 6.91998 67.0935 7.2222 66.5389 7.83708Z" fill="#F5F5F5"/>
<path d="M79.6471 4.41886C79.1026 4.41886 78.6186 4.30423 78.1951 4.08537V18.1233C78.1951 18.5818 78.1044 18.9049 77.9128 19.0925C77.7313 19.2801 77.4187 19.3739 76.9952 19.3739H76.1684V21.9897H77.3683C79.8588 21.9897 81.1092 20.6974 81.1092 18.1233V4.07495C80.6957 4.30423 80.2017 4.41886 79.6471 4.41886Z" fill="#10B981"/>
<path d="M94.1467 7.11802C93.6325 6.19049 92.9367 5.49225 92.0494 5.00243C91.1621 4.51262 90.1538 4.27292 89.0446 4.27292C87.9254 4.27292 86.9272 4.51262 86.0298 5.00243C85.1424 5.49225 84.4366 6.19049 83.9325 7.11802C83.4182 8.04554 83.1661 9.12939 83.1661 10.3696C83.1661 11.6201 83.4182 12.6936 83.9325 13.6107C84.4467 14.5278 85.1424 15.2364 86.0298 15.7263C86.9171 16.2161 87.9254 16.4662 89.0446 16.4662C90.1639 16.4662 91.1621 16.2161 92.0494 15.7263C92.9367 15.226 93.6426 14.5278 94.1467 13.6107C94.661 12.6936 94.913 11.6097 94.913 10.3696C94.913 9.12939 94.6509 8.04554 94.1467 7.11802ZM92.4023 12.1621C92.2713 13.1104 91.8478 13.7878 91.1419 14.2047C90.4361 14.6216 89.6597 14.6528 88.8026 14.2881C87.9557 13.9233 87.1792 13.1209 86.5037 11.8703C85.818 10.6197 85.5458 9.52541 85.6769 8.57704C85.8079 7.62868 86.2213 6.95127 86.9373 6.53441C87.6431 6.11754 88.4195 6.08628 89.2665 6.45103C90.1135 6.81579 90.8899 7.62867 91.5755 8.86884C92.2511 10.1194 92.5334 11.2241 92.4023 12.1621Z" fill="#10B981"/>
<path d="M108.233 7.11807C107.799 6.19054 107.194 5.4923 106.418 5.00248C105.642 4.51267 104.774 4.27297 103.816 4.27297C102.848 4.27297 102.032 4.51267 101.346 4.98164C100.66 5.45061 100.176 6.08633 99.884 6.88879V0.427399H96.97V16.3203H99.884V13.8296C100.176 14.632 100.66 15.2782 101.346 15.7576C102.032 16.237 102.848 16.4767 103.816 16.4767C104.784 16.4767 105.652 16.237 106.418 15.7471C107.194 15.2573 107.789 14.5591 108.233 13.6316C108.666 12.704 108.878 11.6202 108.878 10.38C108.888 9.12943 108.666 8.04559 108.233 7.11807ZM105.107 12.9021C104.553 13.5065 103.827 13.8192 102.919 13.8192C102.032 13.8192 101.306 13.5065 100.741 12.8812C100.166 12.2559 99.884 11.4222 99.884 10.38C99.884 9.31702 100.166 8.48329 100.741 7.858C101.316 7.2327 102.042 6.92005 102.919 6.92005C103.827 6.92005 104.563 7.2327 105.107 7.84758C105.662 8.46245 105.934 9.3066 105.934 10.38C105.934 11.4535 105.652 12.2872 105.107 12.9021Z" fill="#10B981"/>
<path d="M119.385 11.1199C118.992 10.6405 118.528 10.2862 117.983 10.0673C117.439 9.84846 116.733 9.62961 115.866 9.4316C115.251 9.27527 114.767 9.13979 114.444 9.02515C114.111 8.91052 113.839 8.75419 113.617 8.55618C113.395 8.35817 113.285 8.08721 113.285 7.76414C113.285 7.34727 113.426 7.02421 113.698 6.77409C113.97 6.53439 114.363 6.40933 114.858 6.40933C115.473 6.40933 115.977 6.5865 116.37 6.91999C116.753 7.2639 117.005 7.72245 117.116 8.29564H119.849C119.647 7.07631 119.123 6.10711 118.276 5.37759C117.439 4.64808 116.32 4.28333 114.928 4.28333C113.597 4.28333 112.548 4.60639 111.792 5.25253C111.036 5.89867 110.653 6.7324 110.653 7.76414C110.653 8.5666 110.844 9.20232 111.228 9.65045C111.611 10.109 112.064 10.4425 112.589 10.6509C113.113 10.8594 113.809 11.0574 114.666 11.2658C115.281 11.4221 115.765 11.5576 116.098 11.6722C116.441 11.7869 116.713 11.9536 116.945 12.1725C117.167 12.3913 117.288 12.6623 117.288 13.0062C117.288 13.4022 117.157 13.7357 116.894 13.9858C116.632 14.236 116.249 14.361 115.755 14.361C115.069 14.361 114.505 14.1943 114.081 13.8608C113.658 13.5273 113.406 13.0583 113.335 12.4747H110.542C110.734 13.767 111.278 14.757 112.175 15.4449C113.073 16.1431 114.263 16.487 115.755 16.487C117.046 16.487 118.084 16.1744 118.85 15.5387C119.617 14.9134 120 14.09 120 13.0687C119.97 12.2454 119.768 11.5993 119.385 11.1199Z" fill="#10B981"/>
<path d="M81.452 1.65703C81.452 2.04263 81.3411 2.37612 81.1192 2.64709C81.0688 2.70962 81.0184 2.77215 80.9579 2.82425C80.6252 3.12648 80.1916 3.2828 79.6572 3.2828C79.1127 3.2828 78.6791 3.12648 78.3564 2.82425C78.306 2.77215 78.2556 2.72004 78.2153 2.66793C77.9834 2.38655 77.8624 2.04264 77.8624 1.64661C77.8624 1.1568 78.0237 0.760776 78.3564 0.45855C78.6892 0.156323 79.1228 0 79.6572 0C80.1916 0 80.6252 0.156324 80.9579 0.468972C81.2806 0.792042 81.452 1.17764 81.452 1.65703Z" fill="#10B981"/>
</svg>
