<svg width="102" height="67" viewBox="0 0 102 67" fill="none" xmlns="http://www.w3.org/2000/svg">
    <path class="fill-blue-500" d="M12.3918 0.953215C13.345 1.58869 13.9805 2.41482 14.3618 3.43158V0.254197H18.2382V15.5692H14.3618V12.3283C13.9805 13.345 13.345 14.1711 12.3918 14.8066C11.4386 15.4421 10.3583 15.7598 9.08734 15.7598C7.81639 15.7598 6.60898 15.4421 5.59222 14.8066C4.57545 14.1711 3.7493 13.2815 3.17737 12.0741C2.60544 10.8667 2.28769 9.46861 2.28769 7.87992C2.28769 6.29123 2.60544 4.89317 3.17737 3.68577C3.7493 2.47836 4.57545 1.58869 5.59222 0.953215C6.60898 0.317738 7.81639 0 9.08734 0C10.3583 0.0635477 11.4386 0.381286 12.3918 0.953215ZM7.3715 4.63898C6.60893 5.40156 6.29122 6.54542 6.29122 7.87992C6.29122 9.27797 6.67248 10.3583 7.3715 11.1208C8.13408 11.8834 9.08735 12.3283 10.2948 12.3283C11.5022 12.3283 12.4554 11.947 13.2179 11.1208C13.9805 10.2947 14.3618 9.21442 14.3618 7.87992C14.3618 6.48187 13.9805 5.40156 13.2179 4.63898C12.4554 3.81286 11.5022 3.43158 10.2948 3.43158C9.08735 3.49513 8.07053 3.87641 7.3715 4.63898Z" fill="#F5F5F5"/>
    <path d="M34.4429 1.01675C35.4596 1.65223 36.2857 2.5419 36.8576 3.74931C37.4296 4.95671 37.7473 6.35476 37.7473 7.94345C37.7473 9.53214 37.4296 10.9302 36.8576 12.1376C36.2857 13.345 35.4596 14.2347 34.4429 14.8702C33.4261 15.5056 32.2187 15.8234 30.9478 15.8234C29.6768 15.8234 28.5329 15.5056 27.6432 14.8702C26.7536 14.2347 26.0546 13.4085 25.6733 12.3918V22.9407H21.7969V0.254183H25.6733V3.43157C26.0546 2.4148 26.69 1.58868 27.6432 0.953201C28.5964 0.317724 29.6768 0.0635376 30.9478 0.0635376C32.2187 0.0635376 33.4261 0.381276 34.4429 1.01675ZM26.8172 4.70252C26.0546 5.52864 25.6733 6.60895 25.6733 7.94345C25.6733 9.27795 26.0546 10.3583 26.8172 11.1844C27.5797 12.0105 28.5329 12.3918 29.7403 12.3918C30.9477 12.3918 31.9645 12.0105 32.6635 11.1844C33.4261 10.4218 33.7438 9.3415 33.7438 7.94345C33.7438 6.5454 33.3625 5.46509 32.6635 4.70252C31.9009 3.93995 30.9477 3.49511 29.7403 3.49511C28.5329 3.49511 27.5797 3.8764 26.8172 4.70252Z" fill="#F5F5F5"/>
    <path d="M46.7076 0.88966C47.6608 0.31773 48.6775 0.0635376 49.8849 0.0635376V4.25768H48.7411C45.8815 4.25768 44.4199 5.59218 44.4199 8.26119V15.6327H40.5435V0.317724H44.4199V3.24092C44.9918 2.22416 45.7543 1.46159 46.7076 0.88966Z" fill="#F5F5F5"/>
    <path d="M63.1029 1.01675C64.3103 1.65223 65.2 2.5419 65.899 3.74931C66.598 4.95671 66.9157 6.35476 66.9157 7.94345C66.9157 9.53214 66.598 10.9302 65.899 12.1376C65.2 13.345 64.2467 14.2347 63.1029 14.8702C61.8955 15.5056 60.5609 15.8234 59.0993 15.8234C57.5742 15.8234 56.2397 15.5056 55.0959 14.8702C53.8885 14.2347 52.9988 13.345 52.2998 12.1376C51.6007 10.9302 51.283 9.53214 51.283 7.94345C51.283 6.35476 51.6007 4.95671 52.2998 3.74931C52.9988 2.5419 53.8885 1.65223 55.0959 1.01675C56.3033 0.381276 57.6377 0.0635376 59.0993 0.0635376C60.5609 0.0635376 61.959 0.381276 63.1029 1.01675ZM56.3032 4.57542C55.5407 5.33799 55.1594 6.48185 55.1594 7.94345C55.1594 9.40504 55.5407 10.4854 56.3032 11.3115C57.0658 12.074 57.9555 12.4553 59.0993 12.4553C60.1797 12.4553 61.1329 12.074 61.8955 11.3115C62.658 10.5489 63.0393 9.40504 63.0393 7.94345C63.0393 6.48185 62.658 5.40154 61.8955 4.57542C61.1329 3.81285 60.2432 3.43157 59.0993 3.43157C58.019 3.43157 57.0658 3.81285 56.3032 4.57542Z" fill="#F5F5F5"/>
    <path d="M76.3844 11.6928L80.2608 0.254211H84.3914L78.7356 15.5692H73.9695L68.3138 0.254211H72.5079L76.3844 11.6928Z" fill="#F5F5F5"/>
    <path d="M95.957 0.953215C96.9102 1.58869 97.5457 2.41482 97.927 3.43158V0.254197H101.803V15.5692H97.927V12.3283C97.5457 13.345 96.9102 14.1711 95.957 14.8066C95.0038 15.4421 93.9235 15.7598 92.6526 15.7598C91.3816 15.7598 90.1742 15.4421 89.1574 14.8066C88.1407 14.1711 87.3145 13.2815 86.7426 12.0741C86.1707 10.8667 85.8529 9.46861 85.8529 7.87992C85.8529 6.29123 86.1707 4.89317 86.7426 3.68577C87.3145 2.47836 88.1407 1.58869 89.1574 0.953215C90.1742 0.317738 91.3816 0 92.6526 0C93.9235 0.0635477 95.0038 0.381286 95.957 0.953215ZM90.8732 4.63898C90.1106 5.40156 89.7929 6.54542 89.7929 7.87992C89.7929 9.27797 90.1742 10.3583 90.8732 11.1208C91.6358 11.8834 92.589 12.3283 93.7964 12.3283C95.0038 12.3283 95.9571 11.947 96.7196 11.1208C97.4822 10.2947 97.8634 9.21442 97.8634 7.87992C97.8634 6.48187 97.4822 5.40156 96.7196 4.63898C95.9571 3.81286 95.0038 3.43158 93.7964 3.43158C92.589 3.49513 91.6358 3.87641 90.8732 4.63898Z" fill="#F5F5F5"/>
    <path d="M8.0706 31.2654C6.79965 31.2654 5.65576 31.0113 4.70254 30.5029V57.6377C4.70254 58.6545 4.5119 59.4171 4.06707 59.7984C3.62223 60.2432 2.92319 60.4338 1.90643 60.4338H0V66.2802H2.79611C8.57895 66.2802 11.5021 63.357 11.5021 57.6377V30.5029C10.4854 31.0113 9.34156 31.2654 8.0706 31.2654Z" fill="#10B981"/>
    <path d="M12.2647 25.0378C12.2647 25.9275 12.0105 26.6265 11.5021 27.262C11.375 27.3891 11.2479 27.5162 11.1208 27.6433C10.3583 28.3423 9.34154 28.66 8.07058 28.66C6.79963 28.66 5.78284 28.2787 5.02026 27.6433C4.89317 27.5162 4.76607 27.4526 4.70252 27.3255C4.1306 26.6901 3.87637 25.9275 3.87637 25.0378C3.87637 23.9575 4.25769 23.0678 5.02026 22.3688C5.78284 21.6698 6.79963 21.3521 8.07058 21.3521C9.34154 21.3521 10.3583 21.7333 11.1208 22.4324C11.8834 23.0678 12.2647 23.9575 12.2647 25.0378Z" fill="#10B981"/>
    <path d="M41.8779 32.9177C40.6705 30.8206 39.0819 29.2319 36.9848 28.1516C34.8877 27.0713 32.6 26.4994 29.9945 26.4994C27.3891 26.4994 25.0378 27.0713 23.0043 28.1516C20.9072 29.2319 19.3185 30.8206 18.1111 32.9177C16.9037 35.0148 16.3318 37.4296 16.3318 40.2257C16.3318 43.0218 16.9037 45.4366 18.1111 47.4701C19.3185 49.5037 20.9072 51.0923 23.0043 52.2362C25.1014 53.3165 27.3891 53.8885 29.9945 53.8885C32.6 53.8885 34.9513 53.3165 36.9848 52.2362C39.0819 51.0923 40.6705 49.5672 41.8779 47.4701C43.0853 45.4366 43.6573 43.0218 43.6573 40.2257C43.6573 37.4296 43.0218 34.9512 41.8779 32.9177ZM37.8109 44.2292C37.4931 46.3263 36.5399 47.915 34.8877 48.8046C33.2354 49.7579 31.3926 49.8214 29.4226 48.9953C27.4526 48.1692 25.6733 46.3898 24.021 43.5937C22.4324 40.7976 21.7969 38.3193 22.1146 36.2222C22.4324 34.1251 23.3856 32.5364 25.0378 31.6468C26.69 30.6935 28.4693 30.63 30.5029 31.4561C32.4729 32.2822 34.2522 34.0616 35.9044 36.8577C37.4296 39.6538 38.1286 42.1321 37.8109 44.2292Z" fill="#10B981"/>
    <path d="M74.7321 32.9177C73.7153 30.8206 72.3173 29.2319 70.538 28.1516C68.7586 27.0713 66.7251 26.4994 64.4374 26.4994C62.1497 26.4994 60.2433 27.0078 58.6546 28.0881C57.0659 29.1684 55.922 30.5664 55.223 32.4093V17.9204H48.4234V53.5707H55.223V47.9785C55.922 49.7578 57.0659 51.2194 58.6546 52.2997C60.2433 53.3801 62.1497 53.8884 64.4374 53.8884C66.7251 53.8884 68.6951 53.3165 70.538 52.2362C72.3808 51.1559 73.7153 49.5672 74.7321 47.4701C75.7488 45.373 76.2572 42.9582 76.2572 40.1621C76.1937 37.4296 75.7488 34.9512 74.7321 32.9177ZM67.4241 45.8814C66.1531 47.2795 64.4374 47.915 62.3403 47.915C60.3068 47.915 58.591 47.2159 57.2565 45.8179C55.922 44.4198 55.2865 42.5134 55.2865 40.2257C55.2865 37.8744 55.922 35.968 57.2565 34.5699C58.591 33.1719 60.3068 32.4729 62.3403 32.4729C64.4374 32.4729 66.1531 33.1719 67.4241 34.5699C68.6951 35.968 69.3305 37.8744 69.3305 40.2257C69.3305 42.6405 68.6951 44.4834 67.4241 45.8814Z" fill="#10B981"/>
    <path d="M100.66 41.8779C99.7699 40.7976 98.6261 40.035 97.4186 39.5267C96.1477 39.0183 94.4954 38.5735 92.4619 38.1286C91.0003 37.7473 89.92 37.4931 89.1574 37.1754C88.3949 36.9212 87.7594 36.5399 87.251 36.0951C86.7426 35.6503 86.4884 35.0148 86.4884 34.3158C86.4884 33.3625 86.8061 32.6635 87.4416 32.0916C88.0771 31.5197 88.9668 31.2655 90.1107 31.2655C91.5723 31.2655 92.7161 31.6468 93.6058 32.4093C94.4955 33.1719 95.0673 34.1887 95.3215 35.5232H101.676C101.168 32.7906 99.9606 30.63 97.9906 28.9778C96.0206 27.3255 93.4151 26.4994 90.1742 26.4994C87.0604 26.4994 84.6455 27.1984 82.8662 28.66C81.0869 30.1216 80.1972 31.9645 80.1972 34.3158C80.1972 36.0951 80.6421 37.5567 81.5317 38.5735C82.4214 39.5902 83.5017 40.3528 84.7091 40.7976C85.9165 41.2425 87.5687 41.7508 89.5387 42.1957C91.0003 42.577 92.0807 42.8312 92.9068 43.0853C93.6693 43.3395 94.3684 43.7208 94.8767 44.2292C95.3851 44.7376 95.6393 45.3095 95.6393 46.1356C95.6393 47.0253 95.3215 47.7879 94.7496 48.2963C94.1141 48.8682 93.288 49.1224 92.0806 49.1224C90.4919 49.1224 89.1574 48.7411 88.2042 47.9785C87.1875 47.2159 86.6155 46.1992 86.4884 44.8647H80.0066C80.4514 47.7243 81.7223 49.9485 83.8194 51.5372C85.9165 53.1259 88.7126 53.8885 92.1442 53.8885C95.1944 53.8885 97.5457 53.1894 99.3251 51.7914C101.104 50.3933 101.994 48.5504 101.994 46.2627C102.058 44.4198 101.613 42.9583 100.66 41.8779Z" fill="#10B981"/>
</svg>
