<svg width="64" height="64" viewBox="0 0 64 64" fill="none" xmlns="http://www.w3.org/2000/svg">
<rect width="64" height="64" rx="4" fill="#10B981"/>
<path d="M8.41081 12.5753C8.98087 12.9588 9.3609 13.4573 9.58893 14.071V12.1534H11.9072V21.396H9.58893V19.4401C9.3609 20.0537 8.98087 20.5523 8.41081 20.9358C7.84075 21.3193 7.1947 21.511 6.43462 21.511C5.67454 21.511 4.95246 21.3193 4.3444 20.9358C3.73634 20.5523 3.24227 20.0153 2.90023 19.2867C2.55819 18.558 2.36816 17.7143 2.36816 16.7555C2.36816 15.7967 2.55819 14.953 2.90023 14.2244C3.24227 13.4957 3.73634 12.9588 4.3444 12.5753C4.95246 12.1918 5.67454 12 6.43462 12C7.1947 12.0384 7.84075 12.2301 8.41081 12.5753ZM5.40849 14.7996C4.95244 15.2598 4.76244 15.9501 4.76244 16.7555C4.76244 17.5992 4.99044 18.2512 5.40849 18.7114C5.86453 19.1716 6.43463 19.4401 7.15671 19.4401C7.87878 19.4401 8.44883 19.21 8.90488 18.7114C9.36093 18.2128 9.58893 17.5609 9.58893 16.7555C9.58893 15.9118 9.36093 15.2598 8.90488 14.7996C8.44883 14.3011 7.87878 14.071 7.15671 14.071C6.43463 14.1093 5.82653 14.3394 5.40849 14.7996Z" fill="#27272A"/>
<path d="M21.5982 12.6136C22.2063 12.9971 22.7003 13.534 23.0423 14.2627C23.3844 14.9914 23.5744 15.8351 23.5744 16.7938C23.5744 17.7526 23.3844 18.5963 23.0423 19.325C22.7003 20.0537 22.2063 20.5906 21.5982 20.9741C20.9901 21.3576 20.2681 21.5494 19.508 21.5494C18.7479 21.5494 18.0638 21.3576 17.5318 20.9741C16.9997 20.5906 16.5817 20.092 16.3536 19.4784V25.8447H14.0354V12.1534H16.3536V14.0709C16.5817 13.4573 16.9617 12.9588 17.5318 12.5752C18.1018 12.1917 18.7479 12.0383 19.508 12.0383C20.2681 12.0383 20.9901 12.2301 21.5982 12.6136ZM17.0377 14.838C16.5817 15.3365 16.3536 15.9885 16.3536 16.7938C16.3536 17.5992 16.5817 18.2512 17.0377 18.7497C17.4938 19.2483 18.0638 19.4784 18.7859 19.4784C19.508 19.4784 20.116 19.2483 20.5341 18.7497C20.9901 18.2895 21.1801 17.6376 21.1801 16.7938C21.1801 15.9501 20.9521 15.2982 20.5341 14.838C20.078 14.3777 19.508 14.1093 18.7859 14.1093C18.0638 14.1093 17.4938 14.3394 17.0377 14.838Z" fill="#27272A"/>
<path d="M28.933 12.5369C29.503 12.1917 30.1111 12.0383 30.8332 12.0383V14.5695H30.1491C28.4389 14.5695 27.5648 15.3749 27.5648 16.9856V21.4343H25.2466V12.1917H27.5648V13.9559C27.9069 13.3423 28.3629 12.8821 28.933 12.5369Z" fill="#27272A"/>
<path d="M38.738 12.6136C39.4601 12.9971 39.9922 13.534 40.4102 14.2627C40.8283 14.9914 41.0183 15.8351 41.0183 16.7938C41.0183 17.7526 40.8283 18.5963 40.4102 19.325C39.9922 20.0537 39.4221 20.5906 38.738 20.9741C38.016 21.3576 37.2179 21.5494 36.3438 21.5494C35.4317 21.5494 34.6336 21.3576 33.9496 20.9741C33.2275 20.5906 32.6954 20.0537 32.2774 19.325C31.8593 18.5963 31.6693 17.7526 31.6693 16.7938C31.6693 15.8351 31.8593 14.9914 32.2774 14.2627C32.6954 13.534 33.2275 12.9971 33.9496 12.6136C34.6716 12.2301 35.4697 12.0383 36.3438 12.0383C37.2179 12.0383 38.054 12.2301 38.738 12.6136ZM34.6716 14.7612C34.2155 15.2215 33.9875 15.9118 33.9875 16.7938C33.9875 17.6759 34.2155 18.3279 34.6716 18.8264C35.1276 19.2867 35.6597 19.5168 36.3438 19.5168C36.9898 19.5168 37.5599 19.2867 38.016 18.8264C38.472 18.3662 38.7001 17.6759 38.7001 16.7938C38.7001 15.9118 38.472 15.2598 38.016 14.7612C37.5599 14.301 37.0278 14.0709 36.3438 14.0709C35.6977 14.0709 35.1276 14.301 34.6716 14.7612Z" fill="#27272A"/>
<path d="M46.6809 19.0566L48.9991 12.1534H51.4694L48.087 21.396H45.2367L41.8544 12.1534H44.3626L46.6809 19.0566Z" fill="#27272A"/>
<path d="M58.386 12.5753C58.9561 12.9588 59.3361 13.4573 59.5641 14.071V12.1534H61.8824V21.396H59.5641V19.4401C59.3361 20.0537 58.9561 20.5523 58.386 20.9358C57.816 21.3193 57.1699 21.511 56.4098 21.511C55.6498 21.511 54.9277 21.3193 54.3196 20.9358C53.7116 20.5523 53.2175 20.0153 52.8754 19.2867C52.5334 18.558 52.3434 17.7143 52.3434 16.7555C52.3434 15.7967 52.5334 14.953 52.8754 14.2244C53.2175 13.4957 53.7116 12.9588 54.3196 12.5753C54.9277 12.1918 55.6498 12 56.4098 12C57.1699 12.0384 57.816 12.2301 58.386 12.5753ZM55.3457 14.7996C54.8897 15.2598 54.6997 15.9501 54.6997 16.7555C54.6997 17.5992 54.9277 18.2512 55.3457 18.7114C55.8018 19.1716 56.3718 19.4401 57.0939 19.4401C57.816 19.4401 58.3861 19.21 58.8421 18.7114C59.2982 18.2128 59.5262 17.5609 59.5262 16.7555C59.5262 15.9118 59.2982 15.2598 58.8421 14.7996C58.3861 14.3011 57.816 14.071 57.0939 14.071C56.3718 14.1093 55.8018 14.3394 55.3457 14.7996Z" fill="#27272A"/>
<path d="M5.82654 30.8686C5.06646 30.8686 4.38237 30.7152 3.81231 30.4084V46.7843C3.81231 47.3979 3.69829 47.8581 3.43227 48.0882C3.16624 48.3567 2.74818 48.4717 2.14012 48.4717H1V52H2.67219C6.13055 52 7.87872 50.2358 7.87872 46.7843V30.4084C7.27065 30.7152 6.58662 30.8686 5.82654 30.8686Z" fill="#F5F5F5"/>
<path d="M8.33479 27.1103C8.33479 27.6472 8.18275 28.0691 7.87872 28.4526C7.80271 28.5293 7.72671 28.606 7.6507 28.6827C7.19466 29.1045 6.58662 29.2963 5.82654 29.2963C5.06646 29.2963 4.45838 29.0662 4.00233 28.6827C3.92632 28.606 3.85031 28.5676 3.81231 28.4909C3.47027 28.1074 3.31824 27.6472 3.31824 27.1103C3.31824 26.4583 3.54628 25.9214 4.00233 25.4995C4.45838 25.0777 5.06646 24.8859 5.82654 24.8859C6.58662 24.8859 7.19466 25.116 7.6507 25.5379C8.10675 25.9214 8.33479 26.4583 8.33479 27.1103Z" fill="#F5F5F5"/>
<path d="M26.0447 31.8658C25.3226 30.6002 24.3725 29.6414 23.1184 28.9895C21.8643 28.3375 20.4961 27.9923 18.938 27.9923C17.3798 27.9923 15.9736 28.3375 14.7575 28.9895C13.5034 29.6414 12.5533 30.6002 11.8312 31.8658C11.1091 33.1314 10.7671 34.5887 10.7671 36.2761C10.7671 37.9636 11.1091 39.4209 11.8312 40.6481C12.5533 41.8754 13.5034 42.8341 14.7575 43.5244C16.0116 44.1764 17.3798 44.5216 18.938 44.5216C20.4961 44.5216 21.9023 44.1764 23.1184 43.5244C24.3725 42.8341 25.3226 41.9137 26.0447 40.6481C26.7668 39.4209 27.1088 37.9636 27.1088 36.2761C27.1088 34.5887 26.7288 33.093 26.0447 31.8658ZM23.6124 38.6922C23.4224 39.9578 22.8523 40.9166 21.8642 41.4535C20.8761 42.0288 19.774 42.0671 18.5959 41.5686C17.4178 41.07 16.3537 39.9962 15.3656 38.3087C14.4155 36.6213 14.0354 35.1256 14.2254 33.86C14.4155 32.5944 14.9855 31.6357 15.9736 31.0988C16.9617 30.5235 18.0258 30.4851 19.242 30.9837C20.4201 31.4823 21.4842 32.5561 22.4723 34.2435C23.3844 35.931 23.8024 37.4267 23.6124 38.6922Z" fill="#F5F5F5"/>
<path d="M45.6927 31.8658C45.0847 30.6002 44.2486 29.6414 43.1845 28.9895C42.1204 28.3375 40.9042 27.9923 39.5361 27.9923C38.168 27.9923 37.0278 28.2991 36.0777 28.9511C35.1276 29.6031 34.4436 30.4468 34.0255 31.559V22.815H29.9591V44.3298H34.0255V40.9549C34.4436 42.0288 35.1276 42.9108 36.0777 43.5628C37.0278 44.2148 38.168 44.5216 39.5361 44.5216C40.9042 44.5216 42.0824 44.1764 43.1845 43.5245C44.2866 42.8725 45.0847 41.9137 45.6927 40.6481C46.3008 39.3826 46.6048 37.9252 46.6048 36.2378C46.5668 34.5887 46.3008 33.093 45.6927 31.8658ZM41.3223 39.6894C40.5622 40.5331 39.5361 40.9166 38.2819 40.9166C37.0658 40.9166 36.0397 40.4947 35.2416 39.651C34.4435 38.8073 34.0635 37.6568 34.0635 36.2761C34.0635 34.8572 34.4435 33.7066 35.2416 32.8629C36.0397 32.0192 37.0658 31.5973 38.2819 31.5973C39.5361 31.5973 40.5622 32.0192 41.3223 32.8629C42.0823 33.7066 42.4624 34.8572 42.4624 36.2761C42.4624 37.7335 42.0823 38.8456 41.3223 39.6894Z" fill="#F5F5F5"/>
<path d="M61.1984 37.2733C60.6663 36.6213 59.9822 36.1611 59.2602 35.8543C58.5001 35.5475 57.512 35.279 56.2958 35.0105C55.4217 34.7804 54.7757 34.627 54.3196 34.4353C53.8636 34.2819 53.4835 34.0518 53.1795 33.7833C52.8755 33.5149 52.7234 33.1314 52.7234 32.7095C52.7234 32.1342 52.9135 31.7124 53.2935 31.3672C53.6735 31.0221 54.2056 30.8687 54.8897 30.8687C55.7638 30.8687 56.4479 31.0988 56.9799 31.559C57.512 32.0192 57.854 32.6328 58.006 33.4382H61.8064C61.5024 31.7891 60.7803 30.4851 59.6022 29.488C58.4241 28.4909 56.8659 27.9923 54.9277 27.9923C53.0655 27.9923 51.6213 28.4142 50.5572 29.2963C49.4931 30.1783 48.9611 31.2905 48.9611 32.7095C48.9611 33.7833 49.2271 34.6654 49.7592 35.279C50.2912 35.8926 50.9373 36.3528 51.6594 36.6213C52.3814 36.8897 53.3695 37.1966 54.5476 37.465C55.4217 37.6951 56.0678 37.8485 56.5619 38.0019C57.0179 38.1553 57.436 38.3854 57.74 38.6922C58.044 38.999 58.196 39.3442 58.196 39.8428C58.196 40.3797 58.006 40.8399 57.664 41.1467C57.2839 41.4919 56.7899 41.6453 56.0678 41.6453C55.1177 41.6453 54.3196 41.4152 53.7496 40.9549C53.1415 40.4947 52.7994 39.8811 52.7234 39.0757H48.847C49.1131 40.8015 49.8732 42.1438 51.1273 43.1026C52.3814 44.0614 54.0536 44.5216 56.1058 44.5216C57.93 44.5216 59.3362 44.0997 60.4003 43.256C61.4644 42.4123 61.9964 41.3001 61.9964 39.9195C62.0344 38.8073 61.7684 37.9252 61.1984 37.2733Z" fill="#F5F5F5"/>
</svg>
